<svg id="visual" viewBox="0 0 900 600" width="900" height="600" xmlns="http://www.w3.org/2000/svg" xmlns:xlink="http://www.w3.org/1999/xlink" version="1.1"><rect width="900" height="600" fill="#fff0f6"></rect><g><g transform="translate(119 209)"><path d="M0 -147L114.9 -91.7L143.3 32.7L63.8 132.4L-63.8 132.4L-143.3 32.7L-114.9 -91.7Z" fill="#e64980"></path></g><g transform="translate(740 394)"><path d="M0 -103L80.5 -64.2L100.4 22.9L44.7 92.8L-44.7 92.8L-100.4 22.9L-80.5 -64.2Z" fill="#e64980"></path></g><g transform="translate(403 566)"><path d="M0 -135L105.5 -84.2L131.6 30L58.6 121.6L-58.6 121.6L-131.6 30L-105.5 -84.2Z" fill="#e64980"></path></g><g transform="translate(482 105)"><path d="M0 -117L91.5 -72.9L114.1 26L50.8 105.4L-50.8 105.4L-114.1 26L-91.5 -72.9Z" fill="#e64980"></path></g><g transform="translate(58 566)"><path d="M0 -141L110.2 -87.9L137.5 31.4L61.2 127L-61.2 127L-137.5 31.4L-110.2 -87.9Z" fill="#e64980"></path></g></g></svg>